<svg xmlns="http://www.w3.org/2000/svg" viewBox="0 0 128 128" xml:space="preserve"><path fill="none" stroke="#3D3D3D" stroke-width="2" stroke-miterlimit="10" d="M-262.3-197c-6.5 6.5-13.9 7.9-21.6-1.3-7.5-9 1.6-18 24.2-40.7s26.5-10.9 33.8-18.2c18.6-18.6 47.2-24.4 34-10.8"/><path fill="#8DCEA8" d="m-222.4-268.1-39.8 39.8c-8.6 8.6-8.8 22.9-.1 31.3 8.5 8.2 21.9 8.1 30.3-.3 5.8-5.8 10.1-11.5 8.7-18.1-.8-3.6.2-7.3 2.8-9.9l.7-.7c2.6-2.6 6.3-3.6 9.9-2.8 6.3 1.4 11.7-2.5 17.3-7.8 8.9-8.4 9.6-22.8.9-31.5-8.6-8.4-22.3-8.4-30.7 0z"/><path fill="none" stroke="#3D3D3D" stroke-width="2" stroke-miterlimit="10" d="m-222.4-268.1-39.8 39.8c-8.6 8.6-8.8 22.9-.1 31.3 8.5 8.2 21.9 8.1 30.3-.3 5.8-5.8 10.1-11.5 8.7-18.1-.8-3.6.2-7.3 2.8-9.9l.7-.7c2.6-2.6 6.3-3.6 9.9-2.8 6.3 1.4 11.7-2.5 17.3-7.8 8.9-8.4 9.6-22.8.9-31.5-8.6-8.4-22.3-8.4-30.7 0z"/><path fill="none" stroke="#3D3D3D" stroke-width="2" stroke-linecap="square" stroke-linejoin="round" stroke-miterlimit="10" stroke-dasharray="5" d="M-236.1-201.4c-6 6-16 6.1-22.1.2-3-2.8-4.6-6.8-4.6-11 0-4.5 1.7-8.8 4.8-11.9l39.8-39.8c6.1-6.1 16.2-6.2 22.3 0 2.9 2.9 4.5 6.8 4.5 10.9 0 4.4-1.8 8.7-4.9 11.8l-.3.3c-5.6 5.2-8.9 7-12 6.3-5.6-1.3-11.3.4-15.3 4.3l-.7.7c-3.9 3.9-5.6 9.7-4.3 15.3.6 3.5-1.4 7-7.2 12.9z"/><path fill="#C1C1C0" d="M-38-246v18.4c0 4.1-3.2 7.6-7.3 7.6h-79.4c-4.1 0-7.3-3.4-7.3-7.6V-246h-.3c-4.1 0-7.7 3.1-7.7 7.2v13.1c0 8.3 7.1 14.7 15.3 14.7h79.4c8.3 0 15.3-6.4 15.3-14.7v-13.1c0-4.1-3.6-7.2-7.7-7.2h-.3z"/><path fill="none" stroke="#3D3D3D" stroke-width="2" stroke-linecap="square" stroke-linejoin="round" stroke-miterlimit="10" d="M-38-246v18.4c0 4.1-3.2 7.6-7.3 7.6h-79.4c-4.1 0-7.3-3.4-7.3-7.6V-246h-.3c-4.1 0-7.7 3.1-7.7 7.2v13.1c0 8.3 7.1 14.7 15.3 14.7h79.4c8.3 0 15.3-6.4 15.3-14.7v-13.1c0-4.1-3.6-7.2-7.7-7.2h-.3zM-127-246v24M-121-246v24M-115-246v24M-109-246v24M-103-246v24M-97-246v24M-91-246v24M-85-246v24M-79-246v24M-73-246v24M-67-246v24M-61-246v24M-55-246v24M-49-246v24M-43-246v24"/><path fill="#FFF" d="m65.6-261.3 1.6 79.9H35l1.7-79.9c.1-3.8 3.3-6.8 7.1-6.8h14.7c3.8 0 7 3 7.1 6.8z"/><path fill="none" stroke="#3D3D3D" stroke-width="2" stroke-linecap="round" stroke-linejoin="round" stroke-miterlimit="10" d="m65.6-261.3 1.6 79.9H35l1.7-79.9c.1-3.8 3.3-6.8 7.1-6.8h14.7c3.8 0 7 3 7.1 6.8z"/><path fill="none" stroke="#3D3D3D" stroke-width="2" stroke-linejoin="round" stroke-miterlimit="10" d="M36-189h31"/><path fill="none" stroke="#3D3D3D" stroke-width="2" stroke-linecap="round" stroke-linejoin="round" stroke-miterlimit="10" d="M41-182v-7M46-182v-7M51-182v-7M56-182v-7M61-182v-7"/><path fill="#53AF80" d="M59-278.5v9.5H42v-9.5c0-1.9 2.5-3.5 4.5-3.5h8.7c1.8 0 3.8 1.5 3.8 3.5z"/><path fill="none" stroke="#3D3D3D" stroke-width="2" stroke-linecap="round" stroke-linejoin="round" stroke-miterlimit="10" d="M59-278.5v9.5H42v-9.5c0-1.9 2.5-3.5 4.5-3.5h8.7c1.8 0 3.8 1.5 3.8 3.5z"/><path fill="none" stroke="#3D3D3D" stroke-width="2" stroke-linejoin="round" stroke-miterlimit="10" d="M48-269v-9M53-269v-9"/><path fill="#8DCEA8" d="M45-255h12v52H45z"/><path fill="none" stroke="#3D3D3D" stroke-width="2" stroke-linejoin="round" stroke-miterlimit="10" d="M45-255h12v52H45z"/><path fill="#53AF80" d="M90-282h4v100h-4z"/><path fill="none" stroke="#3D3D3D" stroke-width="2" stroke-linecap="round" stroke-linejoin="round" stroke-miterlimit="10" d="M90-282h4v100h-4z"/><path fill="#FFF" d="M77-281h13v26H77z"/><path fill="none" stroke="#3D3D3D" stroke-width="2" stroke-linecap="round" stroke-linejoin="round" stroke-miterlimit="10" d="M77-281h13v26H77z"/><path fill="none" stroke="#3D3D3D" stroke-width="2" stroke-linecap="square" stroke-linejoin="round" stroke-miterlimit="10" d="M77-260h8M77-265h8M77-270h8M77-275h8"/><path fill="#FFF" d="M191.9-178H272v-102h-80.1l-19.7-8.4-19.7 8.4.1 102.1 19.6-8.5z"/><path fill="#E2E2E2" d="M172-288.4v102l20 8.5V-280z"/><path fill="#C1C1C0" d="M153-256c0 1 1.9 0 1.9 0s1.4-.9 2.6-2.3c1.2-1.4 1.2-.5 2.1-1.4.9-.9.9-1.4 2.1-2.3 1.2-1 1.6-1.1 3.5-1.9s1.2-1.4 2.6-2.4c1.4-1 2.6 1.7 4.4 2.2 1.9.5 1.4 1.2 2.7 2.1 1.3.9 3.3.7 4.8 1 1.4.2 4.2 2.6 5.9 2.8s4.7-1.9 6.3-3c1.6-1.2 4.2-5.4 4.4-6.6 0 0 3.3-5.6 3.7-6.5l3-5.6h-8.4l-.9 5.6c-.5.9-1.9 5.4-1.9 5.4s-2.1 2.1-3 2.6c-.9.5-2.6 1.6-4.7 2.1s-3-.7-4.2-1.2c-1.2-.5-3.5-2.3-5-3-1.5-.7-2.7-2.6-2.7-3.5 0-.9-2.6-.9-3.5-.8s-2.6 1.3-3.5 2-3.7 1.4-4.4 2.1c-.7.7-3.5 3.7-4.2 5.6s-3.5 1.2-3.5 0c-.1-1.3-.1 7-.1 7zM154.9-223.2c2.3-.8 7 5.5 8.9 6.9 1.9 1.4 8.4 8.7 8.4 8.7s3.7.2 5.6 3.3c1.9 3 8 .7 9.4 1.4 1.4.7 4.7 4.4 4.7 4.4s7-7 10.3-9.1c3.3-2.1 4.7-3 7-3.7 2.3-.7 9.8-1.2 11.7 0 1.9 1.2 9.4 2.1 10.8.4 1.4-1.6 9.8 1.6 13.3 3s5.4 3.3 6.8 4.9c1.4 1.7 17.1 10 17.1 10 1.1.6 3.1 3.7 3.1 3.7v-16.9c0-.7-1.9-1.2-3.1-1.9 0 0-5.5-5.6-8.3-7.5-2.8-1.9-5.1-5.2-8.4-7.8-3.3-2.7-8.9-.1-14.5 0s-9.4-1.5-12.6-7.3c-3.3-5.8-4.2-6.4-4.2-10.6 0-4.2 2.8-6.6 5.2-10.6 2.3-4.1 1.4-4.8 1.9-9.8.5-5 5.6-11.4 5.6-11.4 1.2-1.6 7.7-7 7.7-7h-26.1l-.3 5.6c0 2.8-1.9 14.7-3.3 17.4-1.4 2.7-3.3 1.6-2.8 6.9.5 5.2 1.8 6.4 3 11.4s2.1 8.8 3.1 10.7-.5 6.2 0 7.1c.5.9-2.1 3.2-2.9 4.6-.8 1.4-10 2.3-9.7 3.5s-4 4.7-4.9 4.9c-.9.2-5.4 3-5.4 3s-2.1-1.2-3.3-1.6c-1.2-.5-1.6-.5-2.8.2-1.2.7-.9.9-2.8.2s-1.9 0-3.3-1.9-2.6-1.5-3.7-2.2c-1.2-.6-1.4-1.6-2.6-1.6s-4.7-4.7-5.6-5.6-6.1-6.6-7.3-7c-1.2-.5-2.3-.7-3.3-1.2-.9-.5-3.7-1.2-3.7-1.2s-1.1 4.5 1.3 3.7z"/><path fill="none" stroke="#3D3D3D" stroke-width="2" stroke-linecap="round" stroke-linejoin="round" stroke-miterlimit="10" d="M191.9-178H272v-102h-80.1l-19.7-8.4-19.7 8.4.1 102.1 19.6-8.5z"/><path fill="none" stroke="#3D3D3D" stroke-width="2" stroke-linecap="square" stroke-linejoin="round" stroke-miterlimit="10" stroke-dasharray="5" d="M172-282v93M192-274v92"/><path fill="none" stroke="#3D3D3D" stroke-width="2" stroke-linecap="round" stroke-linejoin="round" stroke-miterlimit="10" d="M237.1-276.5s-8.7 7.5-9.2 14.9c-.3 5 .5 5.7-1.9 9.8-2.3 4.1-5.2 6.4-5.2 10.6 0 4.2.9 4.8 4.2 10.6 3.3 5.8 7 7.5 12.6 7.3s11.2-2.7 14.5 0c3.3 2.7 5.6 5.9 8.4 7.8 2.8 1.9 8.4 7.5 8.4 7.5M269.1-192.9s-15.9-8.4-17.3-10c-1.4-1.7-3.3-3.5-6.8-4.9-3.5-1.4-11.9-4.7-13.3-3-1.4 1.6-8.9.7-10.8-.4-1.9-1.2-9.4-.7-11.7 0-2.3.7-3.7 1.6-7 3.7s-10.3 9.1-10.3 9.1-3.3-3.7-4.7-4.4c-1.4-.7-7.5 1.6-9.4-1.4-1.9-3-5.6-3.3-5.6-3.3s-6.6-7.3-8.4-8.7c-1.9-1.4-6.6-7.7-8.9-6.9"/><path fill="none" stroke="#3D3D3D" stroke-width="2" stroke-linecap="round" stroke-linejoin="round" stroke-miterlimit="10" d="M214.9-276.5c0 2.8-2 16.7-3.4 19.5-1.4 2.7-3.3 1.6-2.8 6.9.5 5.2 1.8 6.4 3 11.4s2.1 8.8 3.1 10.7-.5 6.2 0 7.1c.5.9-2.1 3.2-2.9 4.6-.8 1.4-10 2.3-9.7 3.5s-4 4.7-4.9 4.9c-.9.2-5.4 3-5.4 3s-2.1-1.2-3.3-1.6c-1.2-.5-1.6-.5-2.8.2-1.2.7-.9.9-2.8.2s-1.9 0-3.3-1.9-2.6-1.5-3.7-2.2c-1.2-.6-1.4-1.6-2.6-1.6s-4.7-4.7-5.6-5.6-6.1-6.6-7.3-7c-1.2-.5-2.3-.7-3.3-1.2M156.3-263.2c.7-1.9 3.7-4.9 4.4-5.6.7-.7 3.5-1.4 4.4-2.1s2.6-1.9 3.5-2 3.5-.1 3.5.8 1.3 2.8 2.7 3.5c1.5.7 3.8 2.6 5 3s2.1 1.6 4.2 1.2c2.1-.5 3.7-1.6 4.7-2.1.9-.5 3-2.6 3-2.6s1.7-6.5 2.2-7.5"/><path fill="none" stroke="#3D3D3D" stroke-width="2" stroke-linecap="round" stroke-linejoin="round" stroke-miterlimit="10" d="M201.2-276.5c-.5.9-4.9 8.6-4.9 8.6-.2 1.2-2.8 5.4-4.4 6.6-1.6 1.2-4.7 3.3-6.3 3s-4.4-2.6-5.9-2.8c-1.4-.2-3.4 0-4.8-1-1.3-.9-.9-1.6-2.7-2.1s-3-3.3-4.4-2.2c-1.4 1-.7 1.7-2.6 2.4s-2.3.9-3.5 1.9c-1.2 1-1.2 1.4-2.1 2.4-.9.9-.9 0-2.1 1.4-1.2 1.4-2.6 2.3-2.6 2.3"/><path fill="#53AF80" d="M262.1-236c0 1.5-1.3 2.7-2.8 2.7s-2.8-1.2-2.8-2.7 1.3-6.5 2.8-6.5 2.8 5 2.8 6.5z"/><path fill="none" stroke="#3D3D3D" stroke-width="2" stroke-linecap="round" stroke-linejoin="round" stroke-miterlimit="10" d="M262.1-236c0 1.5-1.3 2.7-2.8 2.7s-2.8-1.2-2.8-2.7 1.3-6.5 2.8-6.5 2.8 5 2.8 6.5zM259-236v5"/><path fill="#53AF80" d="M252.7-236.9c0 1.5-1.3 2.7-2.8 2.7s-2.8-1.2-2.8-2.7 1.3-6.5 2.8-6.5 2.8 5 2.8 6.5z"/><path fill="none" stroke="#3D3D3D" stroke-width="2" stroke-linecap="round" stroke-linejoin="round" stroke-miterlimit="10" d="M252.7-236.9c0 1.5-1.3 2.7-2.8 2.7s-2.8-1.2-2.8-2.7 1.3-6.5 2.8-6.5 2.8 5 2.8 6.5zM250-237v5"/><path fill="#53AF80" d="M258.4-249.1c0 1.5-1.3 2.7-2.8 2.7-1.6 0-2.8-1.2-2.8-2.7s1.3-6.5 2.8-6.5c1.5 0 2.8 5 2.8 6.5z"/><path fill="none" stroke="#3D3D3D" stroke-width="2" stroke-linecap="round" stroke-linejoin="round" stroke-miterlimit="10" d="M258.4-249.1c0 1.5-1.3 2.7-2.8 2.7-1.6 0-2.8-1.2-2.8-2.7s1.3-6.5 2.8-6.5c1.5 0 2.8 5 2.8 6.5zM256-249v5"/><path fill="#53AF80" d="M243.4-188.2c0 1.5-1.3 2.7-2.8 2.7s-2.8-1.2-2.8-2.7 1.3-6.5 2.8-6.5 2.8 5 2.8 6.5z"/><path fill="none" stroke="#3D3D3D" stroke-width="2" stroke-linecap="round" stroke-linejoin="round" stroke-miterlimit="10" d="M243.4-188.2c0 1.5-1.3 2.7-2.8 2.7s-2.8-1.2-2.8-2.7 1.3-6.5 2.8-6.5 2.8 5 2.8 6.5zM241-188v4"/><path fill="#53AF80" d="M225.6-193.9c0 1.5-1.3 2.7-2.8 2.7-1.6 0-2.8-1.2-2.8-2.7s1.3-6.5 2.8-6.5c1.5.1 2.8 5 2.8 6.5z"/><path fill="none" stroke="#3D3D3D" stroke-width="2" stroke-linecap="round" stroke-linejoin="round" stroke-miterlimit="10" d="M225.6-193.9c0 1.5-1.3 2.7-2.8 2.7-1.6 0-2.8-1.2-2.8-2.7s1.3-6.5 2.8-6.5c1.5.1 2.8 5 2.8 6.5zM223-194v5"/><path fill="#53AF80" d="M208.7-225.7c0 1.5-1.3 2.7-2.8 2.7s-2.8-1.2-2.8-2.7 1.3-6.5 2.8-6.5 2.8 5 2.8 6.5z"/><path fill="none" stroke="#3D3D3D" stroke-width="2" stroke-linecap="round" stroke-linejoin="round" stroke-miterlimit="10" d="M208.7-225.7c0 1.5-1.3 2.7-2.8 2.7s-2.8-1.2-2.8-2.7 1.3-6.5 2.8-6.5 2.8 5 2.8 6.5zM206-226v5"/><path fill="#53AF80" d="M208.7-265c0 1.5-1.3 2.7-2.8 2.7s-2.8-1.2-2.8-2.7 1.3-6.5 2.8-6.5 2.8 5 2.8 6.5z"/><path fill="none" stroke="#3D3D3D" stroke-width="2" stroke-linecap="round" stroke-linejoin="round" stroke-miterlimit="10" d="M208.7-265c0 1.5-1.3 2.7-2.8 2.7s-2.8-1.2-2.8-2.7 1.3-6.5 2.8-6.5 2.8 5 2.8 6.5zM206-265v5"/><path fill="#53AF80" d="M182.7-216.3c0 1.5-.9 2.7-2.1 2.7s-2.1-1.2-2.1-2.7.9-6.5 2.1-6.5 2.1 5 2.1 6.5z"/><path fill="none" stroke="#3D3D3D" stroke-width="2" stroke-linecap="round" stroke-linejoin="round" stroke-miterlimit="10" d="M182.7-216.3c0 1.5-.9 2.7-2.1 2.7s-2.1-1.2-2.1-2.7.9-6.5 2.1-6.5 2.1 5 2.1 6.5zM181-216v4"/><path fill="#53AF80" d="M162.1-207.9c0 1.5-.9 2.7-2.1 2.7-1.2 0-2.1-1.2-2.1-2.7s.9-6.5 2.1-6.5c1.2 0 2.1 5 2.1 6.5z"/><path fill="none" stroke="#3D3D3D" stroke-width="2" stroke-linecap="round" stroke-linejoin="round" stroke-miterlimit="10" d="M162.1-207.9c0 1.5-.9 2.7-2.1 2.7-1.2 0-2.1-1.2-2.1-2.7s.9-6.5 2.1-6.5c1.2 0 2.1 5 2.1 6.5zM160-208v5"/><path fill="none" stroke="#3D3D3D" stroke-width="2" stroke-miterlimit="10" d="M245-274h23M246-274v2M249-274v2M252-274v2M255-274v2M257-274v2M260-274v2M263-274v2M266-274v2"/><circle fill="none" stroke="#3D3D3D" stroke-width="2" stroke-miterlimit="10" cx="264" cy="-266" r="3.1"/><path fill="none" stroke="#3D3D3D" stroke-width="2" stroke-miterlimit="10" d="M264-269v6M261-266h6"/><path fill="#C1C1C0" d="M383-191c0 3.8-3.1 7-7 7h-42c-3.8 0-7-3.1-7-7v-76c0-3.8 3.1-7 7-7h42c3.8 0 7 3.1 7 7v76z"/><path fill="none" stroke="#3D3D3D" stroke-width="2" stroke-linejoin="round" stroke-miterlimit="10" d="M383-191c0 3.8-3.1 7-7 7h-42c-3.8 0-7-3.1-7-7v-76c0-3.8 3.1-7 7-7h42c3.8 0 7 3.1 7 7v76z"/><path fill="#C1C1C0" d="M388-191c0 3.8-3.1 7-7 7h-42c-3.8 0-7-3.1-7-7v-76c0-3.8 3.1-7 7-7h42c3.8 0 7 3.1 7 7v76z"/><path fill="none" stroke="#3D3D3D" stroke-width="2" stroke-linejoin="round" stroke-miterlimit="10" d="M388-191c0 3.8-3.1 7-7 7h-42c-3.8 0-7-3.1-7-7v-76c0-3.8 3.1-7 7-7h42c3.8 0 7 3.1 7 7v76z"/><path fill="#FFF" d="M339-259h42v60h-42z"/><path fill="none" stroke="#3D3D3D" stroke-width="2" stroke-linejoin="round" stroke-miterlimit="10" d="M339-259h42v60h-42zM351-266h18"/><circle fill="#3D3D3D" cx="360.1" cy="-191.6" r="3.4"/><path fill="#53AF80" d="M399-36h-70.9c-2.2 0-4.1-1.3-4.1-3.6v-84.9c0-2.2 1.9-3.6 4.1-3.6H399V-36z"/><path fill="none" stroke="#3D3D3D" stroke-width="2" stroke-miterlimit="10" d="M399-36h-70.9c-2.2 0-4.1-1.3-4.1-3.6v-84.9c0-2.2 1.9-3.6 4.1-3.6H399V-36z"/><path fill="#8DCEA8" d="M401-36h-68.8c-2.2 0-4.2-1.3-4.2-3.6v-84.9c0-2.2 2-3.6 4.2-3.6H401V-36z"/><path fill="none" stroke="#3D3D3D" stroke-width="2" stroke-miterlimit="10" d="M401-36h-68.8c-2.2 0-4.2-1.3-4.2-3.6v-84.9c0-2.2 2-3.6 4.2-3.6H401V-36z"/><circle fill="none" stroke="#3D3D3D" stroke-width="2" stroke-miterlimit="10" cx="364.2" cy="-93.7" r="21.5"/><path fill="none" stroke="#3D3D3D" stroke-width="2" stroke-miterlimit="10" d="M365-116v44M370.1-114.4s6.3 8.2 6.3 20.7-5.3 20.4-5.3 20.4M359.3-114.4s-6.3 8.2-6.3 20.7 5.3 20.4 5.3 20.4M342-94h44M345-104h38M345-84h38M342-58h45"/><path fill="#FFF" d="M179.6-43c-8.2 0-14.9-6.8-14.9-15s6.7-15 14.9-15h51.3c8.2 0 14.9 6.8 14.9 15s-6.7 15-14.9 15h-51.3z"/><path fill="none" stroke="#3D3D3D" stroke-width="2" stroke-miterlimit="10" d="M179.6-43c-8.2 0-14.9-6.8-14.9-15s6.7-15 14.9-15h51.3c8.2 0 14.9 6.8 14.9 15s-6.7 15-14.9 15h-51.3z"/><path fill="#FFF" d="M173-66.1V-106h10v5.1s9 2 9.5 9c-.5.5-9.5 0-9.5 0v9.9h6v-4h4v13.5l-20 6.4z"/><path fill="none" stroke="#3D3D3D" stroke-width="2" stroke-linejoin="round" stroke-miterlimit="10" d="M173-66.1V-106h10v5.1s9 2 9.5 9c-.5.5-9.5 0-9.5 0v9.9h6v-4h4v13.5l-20 6.4z"/><path fill="#FFF" d="M183.6-43c-8.2 0-14.9-6.8-14.9-15s6.7-15 14.9-15h51.3c8.2 0 14.9 6.8 14.9 15s-6.7 15-14.9 15h-51.3z"/><path fill="none" stroke="#3D3D3D" stroke-width="2" stroke-miterlimit="10" d="M183.6-43c-8.2 0-14.9-6.8-14.9-15s6.7-15 14.9-15h51.3c8.2 0 14.9 6.8 14.9 15s-6.7 15-14.9 15h-51.3z"/><path fill="#FFF" d="M187.6-43c-8.2 0-14.9-6.8-14.9-15s6.7-15 14.9-15h51.3c8.2 0 14.9 6.8 14.9 15s-6.7 15-14.9 15h-51.3z"/><path fill="none" stroke="#3D3D3D" stroke-width="2" stroke-miterlimit="10" d="M187.6-43c-8.2 0-14.9-6.8-14.9-15s6.7-15 14.9-15h51.3c8.2 0 14.9 6.8 14.9 15s-6.7 15-14.9 15h-51.3z"/><path fill="#FFF" d="M253-69v-51.3s-12 5-12 18.4V-73"/><path fill="none" stroke="#3D3D3D" stroke-width="2" stroke-linejoin="round" stroke-miterlimit="10" d="M253-69v-51.3s-12 5-12 18.4V-73"/><path fill="#FFF" d="M182.9-72.5s25.5-17.7 27.4-18.9 7.3-.7 9.8 0c-.8 5.2-2.6 7.5-5.9 9.7-2.6 1.8-22.9 15.2-22.9 15.2"/><path fill="none" stroke="#3D3D3D" stroke-width="2" stroke-linejoin="round" stroke-miterlimit="10" d="M182.9-72.5s25.5-17.7 27.4-18.9 7.3-.7 9.8 0c-.8 5.2-2.6 7.5-5.9 9.7-2.6 1.8-22.9 15.2-22.9 15.2"/><path fill="#53AF80" d="M191.5-43c-8.2 0-14.9-6.8-14.9-15s6.7-15 14.9-15h51.3c8.2 0 14.9 6.8 14.9 15s-6.7 15-14.9 15h-51.3z"/><path fill="none" stroke="#3D3D3D" stroke-width="2" stroke-miterlimit="10" d="M191.5-43c-8.2 0-14.9-6.8-14.9-15s6.7-15 14.9-15h51.3c8.2 0 14.9 6.8 14.9 15s-6.7 15-14.9 15h-51.3z"/><path fill="#FFF" d="M227-61h-6v-6h-6v6h-6v6h6v6h6v-6h6zM84-34.3c0 1.2-1 2.3-2.3 2.3H45.3C44-32 43-33 43-34.3v-7.5c0-1.2 1-2.3 2.3-2.3h36.5c1.2 0 2.3 1 2.3 2.3v7.5z"/><path fill="#FFF" d="M84-46.3c0 1.2-1 2.3-2.3 2.3H45.3C44-44 43-45 43-46.3v-7.5c0-1.2 1-2.3 2.3-2.3h36.5c1.2 0 2.3 1 2.3 2.3v7.5z"/><path fill="#FFF" d="M84-58.3c0 1.2-1 2.3-2.3 2.3H45.3C44-56 43-57 43-58.3v-7.5c0-1.2 1-2.3 2.3-2.3h36.5c1.2 0 2.3 1 2.3 2.3v7.5z"/><path fill="#FFF" d="M84-70.3c0 1.2-1 2.3-2.3 2.3H45.3C44-68 43-69 43-70.3v-7.5c0-1.2 1-2.3 2.3-2.3h36.5c1.2 0 2.3 1 2.3 2.3v7.5z"/><path fill="#FFF" d="M84-82.3c0 1.2-1 2.3-2.3 2.3H45.3C44-80 43-81 43-82.3v-7.5c0-1.2 1-2.3 2.3-2.3h36.5c1.2 0 2.3 1 2.3 2.3v7.5z"/><path fill="none" stroke="#3D3D3D" stroke-width="2" stroke-miterlimit="10" d="M84-34.3c0 1.2-1 2.3-2.3 2.3H45.3C44-32 43-33 43-34.3v-7.5c0-1.2 1-2.3 2.3-2.3h36.5c1.2 0 2.3 1 2.3 2.3v7.5z"/><path fill="none" stroke="#3D3D3D" stroke-width="2" stroke-miterlimit="10" d="M84-46.3c0 1.2-1 2.3-2.3 2.3H45.3C44-44 43-45 43-46.3v-7.5c0-1.2 1-2.3 2.3-2.3h36.5c1.2 0 2.3 1 2.3 2.3v7.5z"/><path fill="none" stroke="#3D3D3D" stroke-width="2" stroke-miterlimit="10" d="M84-58.3c0 1.2-1 2.3-2.3 2.3H45.3C44-56 43-57 43-58.3v-7.5c0-1.2 1-2.3 2.3-2.3h36.5c1.2 0 2.3 1 2.3 2.3v7.5z"/><path fill="none" stroke="#3D3D3D" stroke-width="2" stroke-miterlimit="10" d="M84-70.3c0 1.2-1 2.3-2.3 2.3H45.3C44-68 43-69 43-70.3v-7.5c0-1.2 1-2.3 2.3-2.3h36.5c1.2 0 2.3 1 2.3 2.3v7.5z"/><path fill="none" stroke="#3D3D3D" stroke-width="2" stroke-miterlimit="10" d="M84-82.3c0 1.2-1 2.3-2.3 2.3H45.3C44-80 43-81 43-82.3v-7.5c0-1.2 1-2.3 2.3-2.3h36.5c1.2 0 2.3 1 2.3 2.3v7.5zM57-127h12v5H57z"/><path fill="#E2E2E2" d="M83-102.1v7.9c0 1.2-.7 2.2-1.9 2.2H44.9c-1.2 0-1.9-1-1.9-2.2v-7.9c0-1.2 10.9-19.9 12.1-19.9h15.8c1.2 0 12.1 18.6 12.1 19.9z"/><path fill="none" stroke="#3D3D3D" stroke-width="2" stroke-miterlimit="10" d="M83-102.1v7.9c0 1.2-.7 2.2-1.9 2.2H44.9c-1.2 0-1.9-1-1.9-2.2v-7.9c0-1.2 10.9-19.9 12.1-19.9h15.8c1.2 0 12.1 18.6 12.1 19.9zM65-32H51.7c-1.2 0-2.7-.9-2.7-2.1V-42c0-1.2 1.5-2 2.7-2H65M64-44H51.5c-1.2 0-2.5-1.1-2.5-2.2v-7.4c0-1.2 1.3-2.3 2.5-2.3H64M65-56H51.7c-1.2 0-2.7-.7-2.7-2v-7.9c0-1.2 1.5-2.1 2.7-2.1H65M65-68H51.7c-1.2 0-2.7-.7-2.7-2v-7.9c0-1.2 1.5-2.1 2.7-2.1H65"/><path fill="none" stroke="#3D3D3D" stroke-width="2" stroke-miterlimit="10" d="M65-80H51.7c-1.2 0-2.7-.6-2.7-1.8v-7.9c0-1.2 1.5-2.3 2.7-2.3H65M61-92h13.3c1.2 0 2.7-.9 2.7-2.1v-7.7c0-1.2-5.6-19.9-6.9-19.9"/><path fill="none" stroke="#3D3D3D" stroke-width="2" stroke-miterlimit="10" d="M65-92H51.7c-1.2 0-2.7-.9-2.7-2.1v-7.7c0-1.2 5.6-19.9 6.9-19.9M51-122h24"/><path fill="#8DCEA8" d="M68.6-137H57.4c-2.5 0-4.4 1.9-4.4 4.4v6.6h20v-6.6c0-2.5-1.9-4.4-4.4-4.4z"/><path fill="none" stroke="#3D3D3D" stroke-width="2" stroke-miterlimit="10" d="M68.6-137H57.4c-2.5 0-4.4 1.9-4.4 4.4v6.6h20v-6.6c0-2.5-1.9-4.4-4.4-4.4zM56-126v-4M61-126v-4M65-126v-4M70-126v-4"/><path fill="#8DCEA8" d="M-88-29c-21.7 0-39.3-17.3-39.3-39s17.6-39 39.3-39h11v78h-11z"/><path fill="none" stroke="#3D3D3D" stroke-width="2" stroke-miterlimit="10" d="M-88-29c-21.7 0-39.3-17.3-39.3-39s17.6-39 39.3-39h8v78h-8z"/><circle fill="#C1C1C0" cx="-80" cy="-68" r="39.3"/><circle fill="none" stroke="#3D3D3D" stroke-width="2" stroke-miterlimit="10" cx="-80" cy="-68" r="39.3"/><circle fill="#FFF" cx="-80" cy="-68" r="30.2"/><circle fill="none" stroke="#3D3D3D" stroke-width="2" stroke-miterlimit="10" cx="-80" cy="-68" r="31.3"/><path fill="none" stroke="#3D3D3D" stroke-width="2" stroke-miterlimit="10" d="M-84-107v-12"/><path fill="#3D3D3D" d="M-80-72.2c1.1 0 2.2.4 3 1.3 1.7 1.7 1.7 4.4 0 6-2.6 2.6-13.2 10.2-17.3 11.3.4-1.3 1.6-3.9 4.5-8.3 2.7-4 5.7-7.9 6.8-9 .7-.9 1.8-1.3 3-1.3m0-2c-1.6 0-3.2.6-4.4 1.8C-86.8-70-98.5-54.3-96-51.9c.2.2.6.3 1 .3 4.3 0 17.3-9.8 19.5-12 2.4-2.4 2.4-6.4 0-8.9-1.3-1.1-2.9-1.7-4.5-1.7z"/><circle fill="none" stroke="#3D3D3D" stroke-width="2" stroke-miterlimit="10" cx="-84.4" cy="-124.9" r="12"/><path fill="#3D3D3D" d="M-75.6-63.5c-2.4 2.4-6.4 2.4-8.9 0-2.4-2.4-2.4-6.4 0-8.9S-66.4-86.5-64-84c2.5 2.4-9.2 18-11.6 20.5z"/><circle fill="#FFF" cx="-80" cy="-68" r="2.9"/><path fill="none" stroke="#3D3D3D" stroke-width="2" stroke-miterlimit="10" d="M-80-99v7M-80-44v7M-111-68h7M-56-68h7"/><path fill="#53AF80" d="M-281.5-57.3c.5-1 60.9-55.9 68.1-60.6 7.2-4.7 17.6-3.2 27.5 4.5 9.8 7.6 6.9 9.5 5.9 11.5-.9 2-3.6 1.6-9.6-2.7s-13.3-11.2-17.7-10.5c-4.5.7-68.7 63.3-68.7 63.3"/><path fill="#53AF80" d="M-205.4-133.5c-1 .5-55.9 60.9-60.6 68.1-4.7 7.2-3.2 17.6 4.5 27.5 7.6 9.8 9.5 6.9 11.5 5.9 2-.9 1.6-3.6-2.7-9.6-4.2-5.9-11.2-13.3-10.5-17.7.7-4.5 63.3-68.7 63.3-68.7"/><ellipse transform="rotate(-45.001 -213.22 -104.81)" fill="#C1C1C0" cx="-213.2" cy="-104.8" rx="22.6" ry="18.1"/><path fill="none" stroke="#3D3D3D" stroke-width="2" stroke-miterlimit="10" d="M-281.5-57.3c.5-1 60.9-55.9 68.1-60.6 7.2-4.7 17.6-3.2 27.5 4.5 9.8 7.6 6.9 9.5 5.9 11.5-.9 2-3.6 1.6-9.6-2.7s-13.3-11.2-17.7-10.5c-4.5.7-68.7 63.3-68.7 63.3"/><ellipse transform="rotate(-45.001 -252.793 -65.237)" fill="#C1C1C0" cx="-252.8" cy="-65.2" rx="22.6" ry="18.1"/><path fill="#C1C1C0" d="M-205.4-133.5c-1 .5-55.9 60.9-60.6 68.1-4.7 7.2-12.1 2.1-4.5 12s9.5 6.9 11.5 5.9c2-.9 1.6-3.6-2.7-9.6-4.2-5.9-2.3 2.2-1.6-2.2.7-4.5 63.3-68.7 63.3-68.7"/><path fill="none" stroke="#3D3D3D" stroke-width="2" stroke-miterlimit="10" d="M-205.4-133.5c-1 .5-55.9 60.9-60.6 68.1-4.7 7.2-3.2 17.6 4.5 27.5 7.6 9.8 9.5 6.9 11.5 5.9 2-.9 1.6-3.6-2.7-9.6-4.2-5.9-11.2-13.3-10.5-17.7.7-4.5 63.3-68.7 63.3-68.7"/><path fill="#8DCEA8" d="M-226.4-118.6c-7.7 8.7-10.7 19.1-16.2 24.6-.1.1-.2.2-.2.3-.1.1-.2.2-.3.2-5.6 5.6-16 8.5-24.6 16.2s-14.9 21.1-14.9 21.1l5.4 5.4s2.2-3.2 5.2 0c5 5.4 16 10.8 21.2 8.8 5.2-2 19.2-13.7 19.6-23 .4-9.3-8.7-21.3-6.7-23.3.1-.1.2-.2.2-.3.1-.1.2-.1.3-.2 2-2 14 7.1 23.3 6.7 9.3-.4 21.1-14.4 23-19.6 2-5.2-3.3-16.2-8.8-21.2-3.2-3 0-5.2 0-5.2l-5.4-5.4c-.1 0-13.5 6.2-21.1 14.9zm-11.2 48.3c2.1 10.5-4.3 16.5-11.6 21.3-7.3 4.8-14.7-1.4-19.2-5.8-4.5-4.5-2.3-7.9-.2-12.1 1.5-3.1 7.4-8.9 14.9-13.1 7.3-4.3 14-.8 16.1 9.7zm39.4-29.7c-4.8 7.3-10.8 13.7-21.3 11.6-10.5-2.1-14-8.8-9.8-16.2 4.2-7.4 10-13.4 13.1-14.9 4.3-2 7.7-4.2 12.1.2 4.5 4.5 10.7 12 5.9 19.3z"/><path fill="none" stroke="#3D3D3D" stroke-width="2" stroke-miterlimit="10" d="M-226.4-118.6c-7.7 8.7-10.7 19.1-16.2 24.6-.1.1-.2.2-.2.3-.1.1-.2.2-.3.2-5.6 5.6-16 8.5-24.6 16.2s-14.9 21.1-14.9 21.1l5.4 5.4s2.2-3.2 5.2 0c5 5.4 16 10.8 21.2 8.8 5.2-2 19.2-13.7 19.6-23 .4-9.3-8.7-21.3-6.7-23.3.1-.1.2-.2.2-.3.1-.1.2-.1.3-.2 2-2 14 7.1 23.3 6.7 9.3-.4 21.1-14.4 23-19.6 2-5.2-3.3-16.2-8.8-21.2-3.2-3 0-5.2 0-5.2l-5.4-5.4c-.1 0-13.5 6.2-21.1 14.9zm-11.2 48.3c2.1 10.5-4.3 16.5-11.6 21.3-7.3 4.8-14.7-1.4-19.2-5.8-4.5-4.5-2.3-7.9-.2-12.1 1.5-3.1 7.4-8.9 14.9-13.1 7.3-4.3 14-.8 16.1 9.7zm39.4-29.7c-4.8 7.3-10.8 13.7-21.3 11.6-10.5-2.1-14-8.8-9.8-16.2 4.2-7.4 10-13.4 13.1-14.9 4.3-2 7.7-4.2 12.1.2 4.5 4.5 10.7 12 5.9 19.3z"/><path fill="#53AF80" d="M-194 80c0 4.4-3.6 8-8 8h-75c-4.4 0-8-3.6-8-8V48c0-4.4 3.6-8 8-8h75c4.4 0 8 3.6 8 8v32z"/><path fill="none" stroke="#3D3D3D" stroke-width="2" stroke-miterlimit="10" d="M-194 80c0 4.4-3.6 8-8 8h-75c-4.4 0-8-3.6-8-8V48c0-4.4 3.6-8 8-8h75c4.4 0 8 3.6 8 8v32z"/><path fill="#8DCEA8" d="M-180 80c0 4.4-3.6 8-8 8h-75c-4.4 0-8-3.6-8-8V48c0-4.4 3.6-8 8-8h75c4.4 0 8 3.6 8 8v32z"/><path fill="none" stroke="#3D3D3D" stroke-width="2" stroke-miterlimit="10" d="M-180 80c0 4.4-3.6 8-8 8h-75c-4.4 0-8-3.6-8-8V48c0-4.4 3.6-8 8-8h75c4.4 0 8 3.6 8 8v32z"/><path fill="none" stroke="#3D3D3D" stroke-width="2" stroke-linecap="square" stroke-linejoin="round" stroke-miterlimit="10" stroke-dasharray="3,4" d="M-278 67V48c0-4.4 3.6-8 8-8h75"/><path fill="none" stroke="#3D3D3D" stroke-width="2" stroke-miterlimit="10" d="M-285 67h14M-179.3 53.9c1.8 3.9 3.6 8.3 4 12.7.4 4.4-2.7 5.3-4 0s0-12.7 0-12.7z"/><path fill="#FFF" d="M-262 65h13v14h-13z"/><path fill="none" stroke="#3D3D3D" stroke-width="2" stroke-miterlimit="10" d="M-262 65h13v14h-13z"/><path fill="#E2E2E2" d="M-108 122.3c-7.2.7-12.9-4-14.1-11.9-1-6.9-7.3-45.4-1.7-63.6 5-16 17.7-17.8 24.3-15.7 9.5 3.1 15.5 10.8 12.7 24-3.1 14.7-11.9 23.5-10 41.4 2 18.8-1 24.8-11.2 25.8zM-73.7 96.9c6.8 2.5 13.5-.7 16.6-8.1 2.7-6.4 18.3-42.2 17.4-61.2C-40.5 10.8-52.4 6-59.3 6.4c-9.9.7-17.7 6.6-18.2 20.1-.6 15 5.7 25.7-.6 42.6-6.6 17.7-5.2 24.2 4.4 27.8z"/><path fill="#FFF" d="M-122.2 101.3c-.4 0-.8 0-1.2.1.6 4.2 1.1 7.4 1.3 8.9.4 2.7 1.3 5.1 2.7 7 3.2-1.2 5.4-4.2 5.4-7.7 0-4.6-3.7-8.3-8.2-8.3zM-96 82c-1.5-2.3-4-3.8-6.9-3.8-4.6 0-8.3 3.7-8.3 8.3 0 4.6 3.7 8.3 8.3 8.3 2.3 0 4.4-.9 5.9-2.4-.1-3.9.3-7.3 1-10.4zM-104.8 110.9c0 3.5 2.2 6.6 5.4 7.7 2.6-3 3.5-7.9 3.1-16h-.3c-4.5.1-8.2 3.8-8.2 8.3z"/><circle fill="#FFF" cx="-117.3" cy="60.2" r="8.3"/><circle fill="#FFF" cx="-94.7" cy="54.4" r="8.3"/><path fill="#FFF" d="M-116.7 35c1.2 3 4.2 5.1 7.6 5.1 4.6 0 8.3-3.7 8.3-8.3 0-.4 0-.8-.1-1.1-4.4-.9-10.6-.2-15.8 4.3z"/><path fill="none" stroke="#3D3D3D" stroke-width="2" stroke-linejoin="round" stroke-miterlimit="10" d="M-108 122.3c-7.2.7-12.9-4-14.1-11.9-1-6.9-7.3-45.4-1.7-63.6 5-16 17.7-17.8 24.3-15.7 9.5 3.1 15.5 10.8 12.7 24-3.1 14.7-11.9 23.5-10 41.4 2 18.8-1 24.8-11.2 25.8z"/><path fill="#53AF80" d="M-120.3 93.8c-1 0-1.9-.6-2.3-1.5-.4-.8-8.6-19.8-1.4-34.9 3.6-7.6 10.4-12.8 20.3-15.5.9-.3 2 .1 2.6.8 20.2 24.4 4.1 43.8-1.3 50.2-.9 1.1-2.5 1.2-3.5.3-1.1-.9-1.2-2.5-.3-3.5 7.9-9.5 16.6-24.1 2.3-42.5-7.5 2.4-12.8 6.5-15.5 12.4-6.2 13.1 1.4 30.6 1.5 30.7.6 1.3 0 2.7-1.3 3.3-.4.1-.8.2-1.1.2z"/><path fill="none" stroke="#3D3D3D" stroke-width="2" stroke-linejoin="round" stroke-miterlimit="10" d="M-120.3 93.8c-1 0-1.9-.6-2.3-1.5-.4-.8-8.6-19.8-1.4-34.9 3.6-7.6 10.4-12.8 20.3-15.5.9-.3 2 .1 2.6.8 20.2 24.4 4.1 43.8-1.3 50.2-.9 1.1-2.5 1.2-3.5.3-1.1-.9-1.2-2.5-.3-3.5 7.9-9.5 16.6-24.1 2.3-42.5-7.5 2.4-12.8 6.5-15.5 12.4-6.2 13.1 1.4 30.6 1.5 30.7.6 1.3 0 2.7-1.3 3.3-.4.1-.8.2-1.1.2z"/><path fill="#FFF" d="M-54.7 80.1c.4.1.8.2 1.1.4-1.6 3.9-2.9 6.9-3.5 8.3-1.1 2.6-2.6 4.6-4.4 6.1-2.8-1.9-4.2-5.4-3.3-8.8 1.2-4.5 5.7-7.2 10.1-6zM-75.4 54.8c2-1.9 4.8-2.7 7.7-2 4.4 1.1 7.1 5.6 5.9 10-1.1 4.4-5.6 7.1-10 5.9-2.2-.6-4-2-5.1-3.8 1-3.5 1.5-6.9 1.5-10.1zM-74 85c-.9 3.4-3.8 5.8-7.1 6.1-1.8-3.5-1.5-8.6.9-16.2.1 0 .2 0 .3.1 4.4 1.1 7.1 5.6 5.9 10z"/><circle fill="#FFF" cx="-49.3" cy="39.1" r="8.3"/><circle fill="#FFF" cx="-69.8" cy="27.7" r="8.3"/><path fill="#FFF" d="M-43.6 14.5c-1.9 2.6-5.3 3.9-8.6 3-4.4-1.1-7.1-5.6-5.9-10 .1-.4.2-.7.4-1.1 4.4.2 10.2 2.4 14.1 8.1z"/><path fill="none" stroke="#3D3D3D" stroke-width="2" stroke-linejoin="round" stroke-miterlimit="10" d="M-73.7 96.9c6.8 2.5 13.5-.7 16.6-8.1 2.7-6.4 18.3-42.2 17.4-61.2C-40.5 10.8-52.4 6-59.3 6.4c-9.9.7-17.7 6.6-18.2 20.1-.6 15 5.7 25.7-.6 42.6-6.6 17.7-5.2 24.2 4.4 27.8z"/><path fill="#53AF80" d="M-54.7 72.3c.9.2 2-.1 2.6-.9.5-.7 13.3-17 10-33.5-1.6-8.3-6.9-15-15.8-20.1-.8-.5-1.9-.4-2.7.2-25.7 18.6-14.8 41.5-11.2 49 .6 1.2 2.1 1.8 3.3 1.2 1.2-.6 1.8-2.1 1.2-3.3-5.3-11.2-10.1-27.5 8.4-41.8 6.7 4.2 10.7 9.5 12 15.8 2.8 14.2-8.9 29.3-9.1 29.4-.9 1.1-.7 2.7.4 3.5.2.2.6.4.9.5z"/><path fill="none" stroke="#3D3D3D" stroke-width="2" stroke-linejoin="round" stroke-miterlimit="10" d="M-54.7 72.3c.9.2 2-.1 2.6-.9.5-.7 13.3-17 10-33.5-1.6-8.3-6.9-15-15.8-20.1-.8-.5-1.9-.4-2.7.2-25.7 18.6-14.8 41.5-11.2 49 .6 1.2 2.1 1.8 3.3 1.2 1.2-.6 1.8-2.1 1.2-3.3-5.3-11.2-10.1-27.5 8.4-41.8 6.7 4.2 10.7 9.5 12 15.8 2.8 14.2-8.9 29.3-9.1 29.4-.9 1.1-.7 2.7.4 3.5.2.2.6.4.9.5z"/><path fill="#FFF" d="M36 109V18h57v91"/><path fill="none" stroke="#3D3D3D" stroke-width="2" stroke-miterlimit="10" d="M36 18h57v91H36z"/><path fill="#8DCEA8" d="M44 18h66v91H44z"/><path fill="none" stroke="#3D3D3D" stroke-width="2" stroke-miterlimit="10" d="M44 18h66v91H44z"/><path fill="#53AF80" d="M113.8 109H111c-.7 0-1 .1-1-.7V19.1c0-.7.2-1.1 1-1.1h2.8c2.2 0 4.2 1.6 4.2 3.8v83.8c0 2.3-2 3.4-4.2 3.4z"/><path fill="none" stroke="#3D3D3D" stroke-width="2" stroke-miterlimit="10" d="M113.8 109H111c-.7 0-1 .1-1-.7V19.1c0-.7.2-1.1 1-1.1h2.8c2.2 0 4.2 1.6 4.2 3.8v83.8c0 2.3-2 3.4-4.2 3.4zM40 18v91"/><path fill="#3D3D3D" d="M58 18h4v92h-4z"/><path fill="none" stroke="#3D3D3D" stroke-width="2" stroke-linecap="round" stroke-miterlimit="10" d="M98.2 109.4s-.5 6.4 3.2 9.6 8.2 4.6 8.2 4.6"/><path fill="#FFF" d="M73 33h27v20H73z"/><path fill="none" stroke="#3D3D3D" stroke-width="2" stroke-miterlimit="10" d="M73 33h28v19H73zM79 38h16M79 42h16M84 46h6"/><path fill="#8DCEA8" d="M15 33h8v67h-8z"/><path fill="#53AF80" d="M19 33h4v67h-4z"/><path fill="none" stroke="#3D3D3D" stroke-width="2" stroke-miterlimit="10" d="M22 33h-5.5c-.8 0-1.6.4-1.6 1.2V100h8V34.2c.1-.8-.1-1.2-.9-1.2z"/><path fill="#FFF" d="M20.7 107H18c-1.5 0-2.9-1.5-2.9-3v-4h8v4c-.1 1.5-.9 3-2.4 3z"/><path fill="none" stroke="#3D3D3D" stroke-width="2" stroke-miterlimit="10" d="M20 107h-2c-1.6 0-3-1.3-3-3v-4h8v4c0 1.7-1.4 3-3 3zM15 96h8M15 93h8"/><path fill="none" stroke="#3D3D3D" stroke-width="2" stroke-linecap="round" stroke-linejoin="round" stroke-miterlimit="10" d="M23.1 34.2 19 21.9l-4.1 12.3"/><path fill="#53AF80" d="M244 112h-65.8c-2.1 0-4.2-1.3-4.2-3.4V53.8c0-2.1 2.1-3.8 4.2-3.8H244v62z"/><path fill="none" stroke="#3D3D3D" stroke-width="2" stroke-miterlimit="10" d="M244 112h-65.8c-2.1 0-4.2-1.3-4.2-3.4V53.8c0-2.1 2.1-3.8 4.2-3.8H244v62z"/><path fill="#E2E2E2" d="M249 18.9V91h-61V18.9c0-2.1 1.2-3.9 3.3-3.9h54.8c2.1 0 2.9 1.8 2.9 3.9z"/><path fill="none" stroke="#3D3D3D" stroke-width="2" stroke-miterlimit="10" d="M249 18.9V91h-61V18.9c0-2.1 1.2-3.9 3.3-3.9h54.8c2.1 0 2.9 1.8 2.9 3.9z"/><path fill="#53AF80" d="M203.8 59c-4 0-7.2-3.5-7.2-7.5s3.2-7.5 7.2-7.5h3.2v15h-3.2z"/><path fill="none" stroke="#3D3D3D" stroke-width="2" stroke-miterlimit="10" d="M203.8 59c-4 0-7.2-3.5-7.2-7.5s3.2-7.5 7.2-7.5h3.2v15h-3.2z"/><circle fill="#8DCEA8" cx="206.8" cy="51.3" r="7.2"/><path fill="#53AF80" d="M229.8 59c-4 0-7.2-3.5-7.2-7.5s3.2-7.5 7.2-7.5h3.2v15h-3.2z"/><path fill="none" stroke="#3D3D3D" stroke-width="2" stroke-miterlimit="10" d="M229.8 59c-4 0-7.2-3.5-7.2-7.5s3.2-7.5 7.2-7.5h3.2v15h-3.2z"/><circle fill="#8DCEA8" cx="232.8" cy="51.3" r="7.2"/><circle fill="none" stroke="#3D3D3D" stroke-width="2" stroke-miterlimit="10" cx="232.8" cy="51.4" r="7.5"/><circle fill="none" stroke="#3D3D3D" stroke-width="2" stroke-miterlimit="10" cx="206.8" cy="51.4" r="7.5"/><path fill="#FFF" d="M251.8 112H180V50h71.8c2.1 0 4.2 1.7 4.2 3.8v54.8c0 2.1-2.1 3.4-4.2 3.4z"/><path fill="none" stroke="#3D3D3D" stroke-width="2" stroke-miterlimit="10" d="M251.8 112H180V50h71.8c2.1 0 4.2 1.7 4.2 3.8v54.8c0 2.1-2.1 3.4-4.2 3.4z"/><path fill="#53AF80" d="M237 75h-12V63h-15v12h-11v15h11v11h15V90h12z"/><path fill="none" stroke="#3D3D3D" stroke-width="2" stroke-miterlimit="10" d="M237 75h-12V63h-15v12h-11v15h11v11h15V90h12z"/><path fill="#FFF" d="M341.3 84.6c.7 3.1-1.2 6.2-4.3 6.9l-22.4 5.3-10.8-46.3 22.4-5.3c3.1-.7 6.2 1.2 6.9 4.3-.7-3.1 1.2-6.2 4.3-6.9l70.1-16.4 10.8 46.3-70.1 16.4c-3.1.7-6.2-1.2-6.9-4.3z"/><path fill="#8DCEA8" d="M337.4 42.6c-3.1.7-5 3.8-4.3 6.9-.7-3.1-3.8-5-6.9-4.3l-22.4 5.3 2 8.4 103.7-24.3-2-8.4-70.1 16.4z"/><path fill="none" stroke="#3D3D3D" stroke-width="2" stroke-miterlimit="10" d="M341.3 84.6c.7 3.1-1.2 6.2-4.3 6.9l-22.4 5.3-10.8-46.3 22.4-5.3c3.1-.7 6.2 1.2 6.9 4.3-.7-3.1 1.2-6.2 4.3-6.9l70.1-16.4 10.8 46.3-70.1 16.4c-3.1.7-6.2-1.2-6.9-4.3z"/><path fill="#53AF80" d="m346.202 80.474 65.912-15.456.982 4.187-65.913 15.456zM316.76 87.391l18.205-4.269.982 4.186-18.206 4.27z"/><path fill="#FFF" d="M336.5 79.2c0 3.2-2.6 5.8-5.8 5.8H308V38h22.8c3.2 0 5.8 2.6 5.8 5.8 0-3.2 2.6-5.8 5.8-5.8H414v47h-71.7c-3.2 0-5.8-2.6-5.8-5.8z"/><path fill="#8DCEA8" d="M342.3 38c-3.2 0-5.8 2.6-5.8 5.8 0-3.2-2.6-5.8-5.8-5.8H308v8h106v-8h-71.7z"/><path fill="none" stroke="#3D3D3D" stroke-width="2" stroke-miterlimit="10" d="M336 79.6c0 3.2-2.1 5.4-5.2 5.4H308V38h22.8c3.2 0 5.2 2 5.2 5.2 0-3.2 3.1-5.2 6.3-5.2H414v47h-71.7c-3.2 0-6.3-2.2-6.3-5.4z"/><path fill="none" stroke="#3D3D3D" stroke-width="2" stroke-linecap="square" stroke-linejoin="round" stroke-miterlimit="10" stroke-dasharray="3,4" d="M336 46v31"/><path fill="#53AF80" d="M342 77h68v4h-68zM312 77h19v4h-19z"/><path fill="none" stroke="#3D3D3D" stroke-width="2" stroke-miterlimit="10" d="M315 53h15M315 57h15M315 61h7M369 53h37M369 57h37M369 61h22M342 73h16M374 73h10M395 73h15M347.9 60.9l11-11M356 53v8h-1.1l-2.9-3.1"/><path fill="none" stroke="#3D3D3D" stroke-width="2" stroke-miterlimit="10" d="M357 53h-9v1l3.6 3.5M348 61v4M348 61h-4"/><path fill="#C1C1C0" d="M384 230h-58c-4.6 0-8-3.6-8-8.2v-43.3c0-4.6 3.4-8.6 8-8.6h58"/><path fill="none" stroke="#3D3D3D" stroke-width="2" stroke-miterlimit="10" d="M384 230h-58c-4.6 0-8-3.6-8-8.2v-43.3c0-4.6 3.4-8.6 8-8.6h58"/><path fill="#E2E2E2" d="M400 221.8c0 4.6-3.7 8.2-8.2 8.2h-57.5c-4.6 0-8.2-3.7-8.2-8.2v-43.5c0-4.6 3.7-8.2 8.2-8.2h57.5c4.6 0 8.2 3.7 8.2 8.2v43.5z"/><path fill="#3D3D3D" d="M353 165h45v5h-45z"/><path fill="none" stroke="#3D3D3D" stroke-width="2" stroke-miterlimit="10" d="M400 221.8c0 4.6-3.7 8.2-8.2 8.2h-57.5c-4.6 0-8.2-3.7-8.2-8.2v-43.5c0-4.6 3.7-8.2 8.2-8.2h57.5c4.6 0 8.2 3.7 8.2 8.2v43.5z"/><path fill="#FFF" d="M404 203.9c0 2.3-1.8 4.1-4.1 4.1h-37.8c-2.3 0-4.1-1.8-4.1-4.1v-31.8c0-2.3 1.8-4.1 4.1-4.1h37.8c2.3 0 4.1 1.8 4.1 4.1v31.8z"/><path fill="none" stroke="#3D3D3D" stroke-width="2" stroke-miterlimit="10" d="M404 203.9c0 2.3-1.8 4.1-4.1 4.1h-37.8c-2.3 0-4.1-1.8-4.1-4.1v-31.8c0-2.3 1.8-4.1 4.1-4.1h37.8c2.3 0 4.1 1.8 4.1 4.1v31.8zM386 216h8v4h-8zM358 216h23v4h-23z"/><path fill="#C1C1C0" d="M365 174h33v27h-33z"/><path fill="none" stroke="#3D3D3D" stroke-width="2" stroke-miterlimit="10" d="M365 174h33v27h-33z"/><circle fill="#53AF80" cx="381.5" cy="187.7" r="12.5"/><circle fill="none" stroke="#3D3D3D" stroke-width="2" stroke-miterlimit="10" cx="381.5" cy="187.7" r="12.5"/><circle fill="#3D3D3D" cx="381.5" cy="187.7" r="6"/><circle fill="#FFF" cx="343.3" cy="213.4" r="8.2"/><circle fill="none" stroke="#3D3D3D" stroke-width="2" stroke-miterlimit="10" cx="343.3" cy="213.4" r="8.2"/><path fill="#8DCEA8" d="M353 179.1c0-1.1-.9-2.1-2.1-2.1H334c-1.1 0-2.1.9-2.1 2.1V191c0 1.1.9 2.1 2.1 2.1h16.9c1.1 0 2.1-.9 2.1-2.1v-11.9z"/><path fill="none" stroke="#3D3D3D" stroke-width="2" stroke-miterlimit="10" d="M353 179.1c0-1.1-.9-2.1-2.1-2.1H334c-1.1 0-2.1.9-2.1 2.1V191c0 1.1.9 2.1 2.1 2.1h16.9c1.1 0 2.1-.9 2.1-2.1v-11.9zM336 177v16"/><path fill="#3D3D3D" d="M318 205h8v11h-8z"/><path fill="none" stroke="#3D3D3D" stroke-width="2" stroke-miterlimit="10" d="M350.7 160h-12.4c-1.1 0-2.3.9-2.3 2.1v7.9h17v-7.9c0-1.2-1.2-2.1-2.3-2.1zM347 160v8M342 160v8"/><path fill="#C1C1C0" d="M334 230h56v6h-56z"/><path fill="none" stroke="#3D3D3D" stroke-width="2" stroke-miterlimit="10" d="M334 230h56v6h-56z"/><path fill="#C1C1C0" d="M355 263v-27h14v27"/><path fill="none" stroke="#3D3D3D" stroke-width="2" stroke-miterlimit="10" d="M355 263v-27h14v27M361 236v27"/><path fill="#53AF80" d="M211.8 224.4c-7.6 0-13.7-6.2-13.7-13.8 0-7.6 6.1-13.8 13.7-13.8l4.2.3v27.5l-4.2-.2z"/><path fill="#8DCEA8" d="M207 168h14v33h-14z"/><path fill="none" stroke="#3D3D3D" stroke-width="2" stroke-miterlimit="10" d="M207 168h14v33h-14z"/><path fill="#8DCEA8" d="M221 222h-14v37.6l7 5.3 7-5.3z"/><path fill="none" stroke="#3D3D3D" stroke-width="2" stroke-miterlimit="10" d="M221 222h-14v37.6l7 5.3 7-5.3z"/><path fill="none" stroke="#3D3D3D" stroke-width="2" stroke-miterlimit="10" d="M211.9 225c-7.6 0-13.8-6.4-13.8-14s6.2-14 13.8-14h4.1v28h-4.1z"/><circle fill="#FFF" cx="216.1" cy="211" r="13.8"/><circle fill="none" stroke="#3D3D3D" stroke-width="2" stroke-miterlimit="10" cx="216.1" cy="211" r="13.8"/><path fill="none" stroke="#3D3D3D" stroke-width="2" stroke-miterlimit="10" d="M216 201v10h5M223 159.1c0-.6-.5-1.1-1.1-1.1H205c-.6 0-1.1.5-1.1 1.1v7.9c0 .6.5 1.1 1.1 1.1h16.9c.6 0 1.1-.5 1.1-1.1v-7.9zM214 168v-8"/><circle fill="#3D3D3D" cx="214" cy="248" r="2.1"/><circle fill="#3D3D3D" cx="214" cy="255.7" r="2.1"/><circle fill="#3D3D3D" cx="214" cy="240.3" r="2.1"/><path fill="#C1C1C0" d="M112 253H21.1c-2.8 0-5.1-2.6-5.1-5.4v-43.2c0-2.8 2.3-5.4 5.1-5.4H112"/><path fill="none" stroke="#3D3D3D" stroke-width="2" stroke-miterlimit="10" d="M112 253H21.1c-2.8 0-5.1-2.6-5.1-5.4v-43.2c0-2.8 2.3-5.4 5.1-5.4H112"/><path fill="#E2E2E2" d="M120 247.9c0 2.8-2.3 5.1-5.1 5.1H25.1c-2.8 0-5.1-2.3-5.1-5.1v-43.8c0-2.8 2.3-5.1 5.1-5.1h89.8c2.8 0 5.1 2.3 5.1 5.1v43.8z"/><path fill="none" stroke="#3D3D3D" stroke-width="2" stroke-miterlimit="10" d="M120 247.9c0 2.8-2.3 5.1-5.1 5.1H25.1c-2.8 0-5.1-2.3-5.1-5.1v-43.8c0-2.8 2.3-5.1 5.1-5.1h89.8c2.8 0 5.1 2.3 5.1 5.1v43.8zM26 208h88"/><path fill="#53AF80" d="M32 171h36v37H32z"/><path fill="none" stroke="#3D3D3D" stroke-width="2" stroke-miterlimit="10" d="M32 171h36v37H32z"/><path fill="#53AF80" d="M37 171h34v37H37z"/><path fill="none" stroke="#3D3D3D" stroke-width="2" stroke-miterlimit="10" d="M37 171h34v37H37z"/><path fill="#53AF80" d="M42 171h35v37H42z"/><path fill="#8DCEA8" d="M46 176h25v32H46z"/><path fill="#53AF80" d="M68.1 208.3c.8-1.4 1.2-3 1.2-4.7 0-5.5-4.5-10-10-10s-10 4.5-10 10c0 1.8.5 3.5 1.3 4.9"/><path fill="none" stroke="#3D3D3D" stroke-width="2" stroke-miterlimit="10" d="M42 171h35v37H42z"/><path fill="#53AF80" d="M71.6 184.5c-4.7 0-8.5-3.5-8.5-8.5H72l-.4 8.5zM55.1 176c0 5-4.1 9-9.1 9v-9h9.1z"/><path fill="none" stroke="#3D3D3D" stroke-width="2" stroke-miterlimit="10" d="M46 176h25v32H46z"/><path fill="none" stroke="#3D3D3D" stroke-width="2" stroke-miterlimit="10" d="M55.1 176.4c0 4.7-3.8 8.5-8.5 8.5M63.1 176.4c0 4.7 3.8 8.5 8.5 8.5"/><path fill="#8DCEA8" d="M95.1 222.2a6.7 6.7 0 0 1 13.4 0"/><path fill="none" stroke="#3D3D3D" stroke-width="2" stroke-miterlimit="10" d="M95.1 222.2a6.7 6.7 0 0 1 13.4 0"/><path fill="#8DCEA8" d="M85.1 222.2c0-4.4 3.6-8 8-8s8 3.6 8 8"/><path fill="none" stroke="#3D3D3D" stroke-width="2" stroke-miterlimit="10" d="M85.1 222.2c0-4.4 3.6-8 8-8s8 3.6 8 8M68.1 208.3c.8-1.4 1.2-3 1.2-4.7 0-5.5-4.5-10-10-10s-10 4.5-10 10c0 1.8.5 3.5 1.3 4.9M25 223h33.6c2.8 0 4.4.8 4.4 3.6V248"/><path fill="none" stroke="#3D3D3D" stroke-width="2" stroke-miterlimit="10" d="M25 235h33.6c2.8 0 4.4 1.5 4.4 4.3v8.7M114 223H80.2c-2.8 0-4.2.8-4.2 3.6V248"/><path fill="none" stroke="#3D3D3D" stroke-width="2" stroke-linecap="square" stroke-linejoin="round" stroke-miterlimit="10" stroke-dasharray="3,4" d="M69 211v39"/><path fill="#E2E2E2" d="M10 230.9c-2.5 0-4.6-1.5-4.6-4s1.8-4 4.3-4H18v8.1l-8-.1z"/><path fill="none" stroke="#3D3D3D" stroke-width="2" stroke-miterlimit="10" d="M10 230.9c-2.5 0-4.6-1.5-4.6-4s1.8-4 4.3-4H18v8.1l-8-.1z"/><circle fill="#3D3D3D" cx="9.7" cy="226.6" r="1.9"/><path fill="#FFF" d="M81 188h27v20H81z"/><path fill="none" stroke="#3D3D3D" stroke-width="2" stroke-miterlimit="10" d="M81 188h27v20H81zM87 197h15M87 201h15M87 205h15"/><path fill="#53AF80" d="M53.2 213H36c-1.2 0-2 1-2 2.2v7.8h21v-7.8c0-1.2-.6-2.2-1.8-2.2z"/><path fill="none" stroke="#3D3D3D" stroke-width="2" stroke-miterlimit="10" d="M53 213H36c-1.1 0-2 .9-2 2v8h21v-8c0-1.1-.9-2-2-2z"/><path fill="#3D3D3D" d="M38 213h6v11h-6z"/><path fill="#E2E2E2" d="M-42 169.7c0-3.2-2.6-5.7-5.7-5.7h-71.5c-3.2 0-5.7 2.6-5.7 5.7v87.5c0 3.2 2.6 5.7 5.7 5.7h71.5c3.2 0 5.7-2.6 5.7-5.7v-87.5z"/><path fill="none" stroke="#3D3D3D" stroke-width="2" stroke-miterlimit="10" d="M-42 169.7c0-3.2-2.6-5.7-5.7-5.7h-71.5c-3.2 0-5.7 2.6-5.7 5.7v87.5c0 3.2 2.6 5.7 5.7 5.7h71.5c3.2 0 5.7-2.6 5.7-5.7v-87.5z"/><path fill="#C1C1C0" d="M-38 169.7c0-3.2-2.6-5.7-5.7-5.7h-71.5c-3.2 0-5.7 2.6-5.7 5.7v87.5c0 3.2 2.6 5.7 5.7 5.7h71.5c3.2 0 5.7-2.6 5.7-5.7v-87.5z"/><path fill="none" stroke="#3D3D3D" stroke-width="2" stroke-miterlimit="10" d="M-38 169.7c0-3.2-2.6-5.7-5.7-5.7h-71.5c-3.2 0-5.7 2.6-5.7 5.7v87.5c0 3.2 2.6 5.7 5.7 5.7h71.5c3.2 0 5.7-2.6 5.7-5.7v-87.5z"/><path fill="#FFF" d="M-108 180h59v63h-59z"/><path fill="none" stroke="#3D3D3D" stroke-width="2" stroke-miterlimit="10" d="M-108 180h59v63h-59zM-108 191h59"/><path fill="none" stroke="#3D3D3D" stroke-width="2" stroke-miterlimit="10" d="M-101 184h3v3h-3zM-91 184h3v3h-3zM-81 184h3v3h-3zM-71 184h3v3h-3zM-61 184h3v3h-3zM-99 200h41M-99 204h41M-99 208h33M-99 213h41M-99 217h41M-99 221h23M-99 226h41M-99 230h41M-55 237h-6M-95 237h-6M-88 253h22"/><path fill="#FFF" d="M-175 260c0 1.1-.9 2-2 2h-101c-1.1 0-2-.9-2-2v-79c0-1.1.9-2 2-2h101c1.1 0 2 .9 2 2v79z"/><path fill="none" stroke="#3D3D3D" stroke-width="2" stroke-miterlimit="10" d="M-175 260c0 1.1-.9 2-2 2h-101c-1.1 0-2-.9-2-2v-79c0-1.1.9-2 2-2h101c1.1 0 2 .9 2 2v79z"/><path fill="#53AF80" d="M-240 262h10v2h-9.4c-.3 0-.6-.4-.6-.6V262z"/><path fill="none" stroke="#3D3D3D" stroke-width="2" stroke-miterlimit="10" d="M-240 262h10v2h-9.4c-.3 0-.6-.4-.6-.6V262z"/><path fill="#53AF80" d="M-240 179h10v-2h-9.4c-.3 0-.6.3-.6.6v1.4z"/><path fill="none" stroke="#3D3D3D" stroke-width="2" stroke-miterlimit="10" d="M-240 179h10v-2h-9.4c-.3 0-.6.3-.6.6v1.4z"/><path fill="#C1C1C0" d="M-290 178h10v83h-10z"/><path fill="none" stroke="#3D3D3D" stroke-width="2" stroke-miterlimit="10" d="M-290 178h10v83h-10z"/><path fill="#53AF80" d="M-280.1 197.8s5.9-19.8 5.2-19.8h-8.8c-.3 0-.5.1-.5.4l3.8 19.8c.1.3.3 0 .3-.4z"/><path fill="none" stroke="#3D3D3D" stroke-width="2" stroke-linecap="round" stroke-linejoin="round" stroke-miterlimit="10" d="M-275 178h-8.7c-.3 0-.5.1-.5.4l3.8 19.7c.1.3.2.2.2-.2"/><path fill="#53AF80" d="M-291 197.6c0 .4.3.7.4.3l3.9-19.6c.1-.3-.1-.4-.4-.4h-3.8v19.7z"/><path fill="none" stroke="#3D3D3D" stroke-width="2" stroke-linecap="round" stroke-linejoin="round" stroke-miterlimit="10" d="M-291 197.6c0 .4.3.7.4.3l3.9-19.6c.1-.3-.1-.4-.4-.4h-3.8v19.7z"/><path fill="#53AF80" d="M-280 197.6v-16.1c0-2.2 1.4-3.5 3.6-3.5h16.1c.4 0 .7.3.3.6l-19.3 19.4c-.3.4-.7 0-.7-.4zM-173 197.6v-16.1c0-2.2-2.2-3.5-4.4-3.5h-16.3c-.4 0-.7.3-.3.6l19.8 19.4c.4.4 1.2 0 1.2-.4zM-173 242.5v15.9c0 2.2-2.2 3.6-4.4 3.6h-16.3c-.4 0-.7-.3-.3-.6l19.8-19.4c.4-.3 1.2.1 1.2.5z"/><path fill="none" stroke="#3D3D3D" stroke-width="2" stroke-miterlimit="10" d="M-280 197.6v-16.1c0-2.2 1.4-3.5 3.6-3.5h16.1c.4 0 .7.3.3.6l-19.3 19.4c-.3.4-.7 0-.7-.4z"/><path fill="#53AF80" d="M-280.1 242.1s5.9 19.9 5.2 19.9h-8.8c-.3 0-.5-.2-.5-.5l3.8-19.8c.1-.3.3-.1.3.4z"/><path fill="none" stroke="#3D3D3D" stroke-width="2" stroke-linecap="round" stroke-linejoin="round" stroke-miterlimit="10" d="M-275 262h-8.7c-.3 0-.5-.2-.5-.5l3.8-19.7c.1-.3.2-.1.2.3"/><path fill="#53AF80" d="M-291 242.2c0-.4.3-.7.4-.3l3.9 19.7c.1.3-.1.5-.4.5h-3.8v-19.9z"/><path fill="none" stroke="#3D3D3D" stroke-width="2" stroke-linecap="round" stroke-linejoin="round" stroke-miterlimit="10" d="M-291 242.2c0-.4.3-.7.4-.3l3.9 19.7c.1.3-.1.5-.4.5h-3.8v-19.9z"/><path fill="#53AF80" d="M-280 242.2v16.1c0 2.2 1.4 3.8 3.6 3.8h16.1c.4 0 .7-.5.3-.8l-19.3-19.5c-.3-.3-.7-.1-.7.4z"/><path fill="none" stroke="#3D3D3D" stroke-width="2" stroke-miterlimit="10" d="M-280 242.2v16.1c0 2.2 1.4 3.8 3.6 3.8h16.1c.4 0 .7-.5.3-.8l-19.3-19.5c-.3-.3-.7-.1-.7.4zM-173 197.6v-16.1c0-2.2-2.2-3.5-4.4-3.5h-16.3c-.4 0-.7.3-.3.6l19.8 19.4c.4.4 1.2 0 1.2-.4zM-173 242.5v15.9c0 2.2-2.2 3.6-4.4 3.6h-16.3c-.4 0-.7-.3-.3-.6l19.8-19.4c.4-.3 1.2.1 1.2.5z"/><path fill="#8DCEA8" d="M-221 177.5c0-.3-.2-.5-.5-.5h-10c-.3 0-.5.2-.5.5v86c0 .3.2.5.5.5h10c.3 0 .5-.2.5-.5v-86z"/><path fill="none" stroke="#3D3D3D" stroke-width="2" stroke-miterlimit="10" d="M-221 177.5c0-.3-.2-.5-.5-.5h-10c-.3 0-.5.2-.5.5v86c0 .3.2.5.5.5h10c.3 0 .5-.2.5-.5v-86z"/><path fill="none" stroke="#3D3D3D" stroke-width="2" stroke-miterlimit="10" d="m-231.6 237.5 5.5 4.2 4.7-3.8"/><path fill="#E2E2E2" d="M-219 233.5c0 .3-.2.5-.5.5h-13c-.3 0-.5-.2-.5-.5v-1c0-.3.2-.5.5-.5h13c.3 0 .5.2.5.5v1z"/><path fill="none" stroke="#3D3D3D" stroke-width="2" stroke-miterlimit="10" d="M-219 233.5c0 .3-.2.5-.5.5h-13c-.3 0-.5-.2-.5-.5v-1c0-.3.2-.5.5-.5h13c.3 0 .5.2.5.5v1z"/><circle fill="#3D3D3D" cx="-226.5" cy="189.7" r="1.7"/><circle fill="#3D3D3D" cx="-226.5" cy="195.7" r="1.7"/><circle fill="#3D3D3D" cx="-226.5" cy="201.7" r="1.7"/><circle fill="#3D3D3D" cx="-226.1" cy="207.7" r="1.7"/><ellipse fill="#3D3D3D" cx="-226.5" cy="213.9" rx="1.7" ry="1.9"/><circle fill="#3D3D3D" cx="-226.5" cy="224" r="1.7"/><path fill="#E2E2E2" d="M-217 209c0-1.1-.9-2-2-2h-15c-1.1 0-2 .9-2 2v9.1c0 1.1.9 2 2 2h15.1c1.1 0 2-.9 2-2V209zm-2 9h-14v-9h14v9z"/><path fill="none" stroke="#3D3D3D" stroke-width="2" stroke-miterlimit="10" d="M-217 218c0 1.1-.9 2-2 2h-15c-1.1 0-2-.9-2-2v-9c0-1.1.9-2 2-2h15.1c1.1 0 2 .9 2 2v9z"/><path fill="none" stroke="#3D3D3D" stroke-width="2" stroke-linejoin="round" stroke-miterlimit="10" d="M-233 210h13v7h-13z"/><path fill="#FFF" d="M-227 214h1v7h-1z"/><path fill="#8DCEA8" d="m-185.022 208.408-.843 3.294-13.37-3.42.843-3.295z"/><path fill="none" stroke="#3D3D3D" stroke-width="2" stroke-linejoin="round" stroke-miterlimit="10" d="M-227 214h1v7h-1z"/><path fill="none" stroke="#3D3D3D" stroke-width="2" stroke-miterlimit="10" d="m-187.2 215-12.4-3.2c-.3-.1-.4-.3-.4-.6l2.3-9.1c.1-.3.3-.4.6-.4l12.4 3.2c.3.1.4.3.4.6l-2.3 9.1c-.1.3-.3.5-.6.4z"/><path fill="none" stroke="#3D3D3D" stroke-width="2" stroke-linejoin="round" stroke-miterlimit="10" d="m-259.3 204.4 5.8-1-1.6-1 3.4-5.3-1.8.3-.1-2.7-2.2 1.4-.8-2.2-2 4.2-1-6.4-1.8 1.9-2.8-2.8-.4 3.9-2.6-.3 3.3 5.6-4.2-2 .7 2.2-2.5.3 1.7 2.1-1.7 1 6.1 1.9-.7 1.8z"/><path fill="none" stroke="#3D3D3D" stroke-width="2" stroke-linecap="round" stroke-linejoin="round" stroke-miterlimit="10" d="m-261.5 198.2 3.6 10.2"/><path fill="none" stroke="#3D3D3D" stroke-width="2" stroke-miterlimit="10" d="m-198.4 205 13.4 3.4M-199.2 208.4l13.3 3.4M-206.5 254.2s3.4-7.5.1-18.5M-193.7 250.3s-7.5-4.2-10.8-15.2M-208.4 254.8l6.2-2M-198.3 251.7l6.2-1.9M-203.5 253.3c-.6-1.8.4-3.8 2.2-4.3 1.8-.5 3.7.5 4.3 2.3M-206.6 235.7l-1.4-1.9 1.4-1.9 2.3.8-.1 2.3zM-206.5 232l-.6-1.9M-206.5 243.1l6.1-1.8M-207.1 248.4l10.1-3"/><path fill="none" stroke="#3D3D3D" stroke-width="2" stroke-linejoin="round" stroke-miterlimit="10" d="M-184.9 231.8c-1.9-1.3-3.6-2.7-5.2-4.3-.8-.8-1.7-1.7-2-2.8-.3-1.1.1-2.6 1.2-3 .5-.2 1.1-.2 1.6 0 1.3.4 2.3 1.4 2.7 2.7 0-.5.4-.9.8-1.2 1.2-.8 2.6-1.1 4-.9 1.1.2 2.2.9 2.3 1.9.1.7-.4 1.4-.8 2-.8.9-1.8 1.7-2.7 2.5-1 .8-1.7 1.9-1.9 3.1z"/><path fill="#C1C1C0" d="M-217 176v-2.4c0-4.2-1.6-8.5-13.5-8.5s-13.5 4.3-13.5 8.5v2.4h-3v-2.4c0-12 12.3-12 17-12 4.7 0 17 0 17 12v2.4h-4z"/><path fill="#FFF" d="M-245.4 176h-11.8c-.3 0-.8.3-.8.6v2.4h13v-2.4c0-.3-.1-.6-.4-.6z"/><path fill="none" stroke="#3D3D3D" stroke-width="2" stroke-miterlimit="10" d="M-217 176v-2.4c0-4.2-1.6-8.5-13.5-8.5s-13.5 4.3-13.5 8.5v2.4h-3v-2.4c0-12 12.3-12 17-12 4.7 0 17 0 17 12v2.4h-4z"/><path fill="#FFF" d="M-205.2 176H-217c-.3 0 0 .3 0 .6v2.4h12v-2.4c0-.3.1-.6-.2-.6z"/><path fill="none" stroke="#3D3D3D" stroke-width="2" stroke-miterlimit="10" d="M-205.2 176H-217c-.3 0 0 .3 0 .6v2.4h12v-2.4c0-.3.1-.6-.2-.6z"/><path fill="#FFF" d="M-202.2 176H-214c-.3 0-1 .3-1 .6v2.4h13v-2.4c0-.3.1-.6-.2-.6z"/><path fill="none" stroke="#3D3D3D" stroke-width="2" stroke-miterlimit="10" d="M-202.2 176H-214c-.3 0-1 .3-1 .6v2.4h13v-2.4c0-.3.1-.6-.2-.6zM-245.4 176h-11.8c-.3 0-.8.3-.8.6v2.4h13v-2.4c0-.3-.1-.6-.4-.6z"/><path fill="#FFF" d="m-269.1 233-5.2-6.1 4.1-6.8 7.8 1.8.7 7.9zM-242.4 176h-11.8c-.3 0-.8.3-.8.6v2.4h13v-2.4c0-.3-.1-.6-.4-.6z"/><path fill="none" stroke="#3D3D3D" stroke-width="2" stroke-linejoin="round" stroke-miterlimit="10" d="m-269.1 233-5.2-6.1 4.1-6.8 7.8 1.8.7 7.9z"/><path fill="none" stroke="#3D3D3D" stroke-width="2" stroke-miterlimit="10" d="M-242.4 176h-11.8c-.3 0-.8.3-.8.6v2.4h13v-2.4c0-.3-.1-.6-.4-.6z"/><path fill="#E2E2E2" d="m-265.4 229.1 7.4-8.4 3.6 10.7z"/><path fill="none" stroke="#3D3D3D" stroke-width="2" stroke-linejoin="round" stroke-miterlimit="10" d="m-265.4 229.1 7.4-8.4 3.6 10.7z"/><path fill="none" stroke="#3D3D3D" stroke-width="2" stroke-miterlimit="10" d="M-290 209h10M-290 214h10M-290 219h10M-290 224h10M-290 229h10"/><path fill="#53AF80" d="M360.2-246.3c-6.3 0-11.3 5.1-11.3 11.3 0 14 11.3 22.5 11.3 22.5s11.3-8.8 11.3-22.5c0-6.3-5.1-11.3-11.3-11.3zm0 17c-3 0-5.5-2.5-5.5-5.5s2.5-5.5 5.5-5.5 5.5 2.5 5.5 5.5-2.5 5.5-5.5 5.5z"/><path fill="none" stroke="#3D3D3D" stroke-width="2" stroke-linejoin="round" stroke-miterlimit="10" d="M371.5-235c0 13.7-11.3 22.5-11.3 22.5s-11.3-8.5-11.3-22.5c0-6.3 5.1-11.3 11.3-11.3 6.2 0 11.3 5 11.3 11.3z"/><circle fill="none" stroke="#3D3D3D" stroke-width="2" stroke-linejoin="round" stroke-miterlimit="10" cx="360.2" cy="-234.8" r="5.5"/><path fill="#53AF80" d="M203.8 38c-4 0-7.2-3.5-7.2-7.5s3.2-7.5 7.2-7.5h3.2v15h-3.2z"/><path fill="none" stroke="#3D3D3D" stroke-width="2" stroke-miterlimit="10" d="M203.8 38c-4 0-7.2-3.5-7.2-7.5s3.2-7.5 7.2-7.5h3.2v15h-3.2z"/><circle fill="#8DCEA8" cx="206.8" cy="30.3" r="7.2"/><path fill="#53AF80" d="M229.8 38c-4 0-7.2-3.5-7.2-7.5s3.2-7.5 7.2-7.5h3.2v15h-3.2z"/><path fill="none" stroke="#3D3D3D" stroke-width="2" stroke-miterlimit="10" d="M229.8 38c-4 0-7.2-3.5-7.2-7.5s3.2-7.5 7.2-7.5h3.2v15h-3.2z"/><circle fill="#8DCEA8" cx="232.8" cy="30.3" r="7.2"/><circle fill="none" stroke="#3D3D3D" stroke-width="2" stroke-miterlimit="10" cx="232.8" cy="30.5" r="7.5"/><circle fill="none" stroke="#3D3D3D" stroke-width="2" stroke-miterlimit="10" cx="206.8" cy="30.5" r="7.5"/></svg>